<svg xmlns="http://www.w3.org/2000/svg" viewBox="0 0 1200 900">
<defs>
  <linearGradient id="grid" x1="0" y1="0" x2="0" y2="1"><stop stop-color="#4fe6ff" stop-opacity=".34"/><stop offset="1" stop-color="#4fe6ff" stop-opacity="0"/></linearGradient>
  <radialGradient id="star"><stop stop-color="#ffffff"/><stop offset=".28" stop-color="#bdf5ff" stop-opacity=".9"/><stop offset="1" stop-color="#4fe6ff" stop-opacity="0"/></radialGradient>
</defs>
<g fill="none" stroke="#58e8ff" stroke-opacity=".18">
  <path d="M93 125 L182 91 L266 168 L356 112 L451 174 L553 97 L656 153 L756 83 L847 147 L958 101 L1077 169"/>
  <path d="M160 251 L246 206 L338 270 L432 217 L530 286 L626 226 L735 279 L831 221 L930 285 L1032 226"/>
  <path d="M66 348 L175 303 L282 358 L386 314 L500 368 L611 318 L725 364 L842 306 L959 361 L1115 314"/>
</g>
<g fill="url(#star)">
<circle cx="93" cy="125" r="12"/><circle cx="182" cy="91" r="8"/><circle cx="266" cy="168" r="10"/><circle cx="356" cy="112" r="7"/><circle cx="451" cy="174" r="12"/><circle cx="553" cy="97" r="8"/><circle cx="656" cy="153" r="9"/><circle cx="756" cy="83" r="11"/><circle cx="847" cy="147" r="8"/><circle cx="958" cy="101" r="10"/><circle cx="1077" cy="169" r="9"/><circle cx="160" cy="251" r="8"/><circle cx="246" cy="206" r="11"/><circle cx="338" cy="270" r="8"/><circle cx="432" cy="217" r="9"/><circle cx="530" cy="286" r="12"/><circle cx="626" cy="226" r="7"/><circle cx="735" cy="279" r="10"/><circle cx="831" cy="221" r="8"/><circle cx="930" cy="285" r="11"/><circle cx="1032" cy="226" r="8"/><circle cx="66" cy="348" r="8"/><circle cx="175" cy="303" r="10"/><circle cx="282" cy="358" r="7"/><circle cx="386" cy="314" r="11"/><circle cx="500" cy="368" r="8"/><circle cx="611" cy="318" r="9"/><circle cx="725" cy="364" r="12"/><circle cx="842" cy="306" r="8"/><circle cx="959" cy="361" r="11"/><circle cx="1115" cy="314" r="9"/>
</g>
<g stroke="url(#grid)" fill="none" stroke-width="1">
<path d="M0 620 H1200"/><path d="M0 655 H1200"/><path d="M0 690 H1200"/><path d="M0 725 H1200"/><path d="M0 760 H1200"/><path d="M0 795 H1200"/><path d="M0 830 H1200"/><path d="M0 865 H1200"/>
<path d="M600 605 L-600 900"/><path d="M600 605 L-420 900"/><path d="M600 605 L-240 900"/><path d="M600 605 L-60 900"/><path d="M600 605 L120 900"/><path d="M600 605 L300 900"/><path d="M600 605 L480 900"/><path d="M600 605 L660 900"/><path d="M600 605 L840 900"/><path d="M600 605 L1020 900"/><path d="M600 605 L1200 900"/><path d="M600 605 L1380 900"/><path d="M600 605 L1560 900"/><path d="M600 605 L1740 900"/>
</g></svg>